# xmcd
#
# Track frame offsets:
#	150
#	7185
#	18438
#	29808
#	45302
#	65096
#	78358
#	92117
#	104725
#	116914
#	130719
#	148029
#	160945
# Disc length: 2370 seconds
# Revision: 1
# Processed by: cddbd v1.5.1PL0 Copyright (c) Steve Scherf et al.
#
# Submitted via: libkcddb 0.10
#
DISCID=b709400d
DTITLE=Terence Blanchard - Flow
DYEAR=2005
DGENRE=Jazz
TTITLE0=Flow, Part 1
TTITLE1=Wadagbe (Intro)
TTITLE2=Wadagbe
TTITLE3=Benny's Tune
TTITLE4=Wandering Wonder
TTITLE5=Flow, Part II
TTITLE6=The Source
TTITLE7=Over There
TTITLE8=Child's Play
TTITLE9=Flow, Part III
TTITLE10=Harvesting Dance
TTITLE11=
TTITLE12=
EXTD=YEAR: 2005
EXTT0=
EXTT1=
EXTT2=
EXTT3=
EXTT4=
EXTT5=
EXTT6=
EXTT7=
EXTT8=
EXTT9=
EXTT10=
EXTT11=
EXTT12=
PLAYORDER=
